<svg xmlns="http://www.w3.org/2000/svg" viewBox="0 0 300 253"><defs><style>.cls-1{fill:none;}.cls-2{fill:#1d1d1b;}</style></defs><g id="Fondo"><rect class="cls-1" width="300" height="253"/></g><g id="C"><path class="cls-2" d="M180.26,117.42a2.39,2.39,0,1,0,2.32-1.81A2.11,2.11,0,0,0,180.26,117.42Z"/><path class="cls-2" d="M149.58,130.23a9.06,9.06,0,0,0-7.12-3.14c-4.65,0-8.42,3-8.42,6.67s3.77,6.67,8.42,6.67a9.24,9.24,0,0,0,6.85-2.8h11.87v0h42.25a6.69,6.69,0,0,1,6.17-3.37c3.64,0,6.59,2.29,6.59,5.12s-2.95,5.12-6.59,5.12c-2.9,0-5.34-1.47-6.22-3.49H161c5.54,10.83,19.13,18.5,35.05,18.5,20.8,0,37.66-13.07,37.74-29.21H161.18v-.05Zm-7,6.47c-2,0-3.55-1.31-3.55-2.94s1.59-2.93,3.55-2.93,3.54,1.31,3.54,2.93S144.54,136.7,142.58,136.7Z"/><path class="cls-2" d="M211.88,139.3a2.4,2.4,0,1,0-2.32,1.8A2.11,2.11,0,0,0,211.88,139.3Z"/><path class="cls-2" d="M282.12,63.87H195.51V86.44H238.2q.09,16.32.16,32.65H230v0H188.71a6.7,6.7,0,0,1-6.17,3.37c-3.64,0-6.6-2.29-6.6-5.12s3-5.12,6.6-5.12c2.9,0,5.33,1.47,6.21,3.49h42.44c-5.55-10.83-19.13-18.51-35.06-18.51-20.79,0-37.66,13.07-37.74,29.22h80q.06,10.78.11,21.59a18.95,18.95,0,0,1-10.45,17.08,71.1,71.1,0,0,1-53.18-1.87q0,14-.11,28.09a234.21,234.21,0,0,0,29.28,2.9,234.44,234.44,0,0,0,32.32-1.07c11.68-1.19,22.15-3.89,31.72-12.2a48.14,48.14,0,0,0,14.29-22.87Q282.25,111,282.12,63.87Z"/><path class="cls-2" d="M106.1,167.88c-8.83-1.64-22.75-4.23-32.25-16.47-8.43-10.85-8.5-23-8.47-26.38,0-4,.3-15.48,8.39-25.46C83.68,87.33,98.57,85,106.71,84.78a94.29,94.29,0,0,1,28.21,3,103.61,103.61,0,0,1,31.86,14.64V71.66a137.64,137.64,0,0,0-32-10.52,146.36,146.36,0,0,0-33.54-2.44c-9.17.36-21.22.88-35.84,5.8C58.19,66.92,51,69.34,43,75.32A64.3,64.3,0,0,0,23,99.87a63.34,63.34,0,0,0-5.33,25.47,65.47,65.47,0,0,0,6,30.63c1.51,3.2,7.61,16.13,19.31,23.35a101.33,101.33,0,0,0,22.41,10.29c15,4.76,27.36,4.78,39.34,4.8A152.4,152.4,0,0,0,134.46,192a147.22,147.22,0,0,0,32.32-9.91V152.78a83.3,83.3,0,0,1-32,14.34A71.33,71.33,0,0,1,106.1,167.88Z"/></g></svg>